# xmcd
#
# Track frame offsets: 
#        182
#        14447
#        32150
#        47497
#        59960
#        78920
#        92327
#        109032
#        124245
#        139067
#        151807
#        165465
#        181720
#        199045
#
# Disc length: 2808 seconds
#
# Revision: 1
# Processed by: cddbd v1.5.2PL0 Copyright (c) Steve Scherf et al.
# Submitted via: ExactAudioCopyFreeDBPlugin 1.0
#
DISCID=ad0af60e
DTITLE=Os Monarcas - Rodeio da Vida
DYEAR=1995
DGENRE=Gaúcha
TTITLE0=O Que Que Há
TTITLE1=Sonhando na vaneira
TTITLE2=Rodeio da Vida
TTITLE3=Jeitosa
TTITLE4=Ciro Beiço
TTITLE5=Infinitas Lembranças
TTITLE6=Apostando na Vaneira
TTITLE7=Tapado de Chamamé
TTITLE8=Gaitinha
TTITLE9=Imortal Honeide Bertussi
TTITLE10=Despedida
TTITLE11=Alma de Gaiteiro
TTITLE12=Canção de Ternura
TTITLE13=Orgulho de Monarca
EXTD=
EXTT0=
EXTT1=
EXTT2=
EXTT3=
EXTT4=
EXTT5=
EXTT6=
EXTT7=
EXTT8=
EXTT9=
EXTT10=
EXTT11=
EXTT12=
EXTT13=
PLAYORDER=
